0
SECTION
2
HEADER
9
$INSUNITS
70
4
9
$ACADVER
1
AC1014
9
$HANDSEED
5
FFFF
0
ENDSEC
0
SECTION
2
TABLES
0
TABLE
2
VPORT
5
8
100
AcDbSymbolTable
0
ENDTAB
0
TABLE
2
LTYPE
5
5
100
AcDbSymbolTable
0
LTYPE
5
14
100
AcDbSymbolTableRecord
100
AcDbLinetypeTableRecord
2
BYBLOCK
70
0
0
LTYPE
5
15
100
AcDbSymbolTableRecord
100
AcDbLinetypeTableRecord
2
BYLAYER
70
0
0
ENDTAB
0
TABLE
2
LAYER
5
2
100
AcDbSymbolTable
70
2
0
LAYER
5
50
100
AcDbSymbolTableRecord
100
AcDbLayerTableRecord
2
0
70
0
6
CONTINUOUS
0
ENDTAB
0
TABLE
2
STYLE
5
3
100
AcDbSymbolTable
70
1
0
STYLE
5
11
100
AcDbSymbolTableRecord
100
AcDbTextStyleTableRecord
2
STANDARD
70
0
0
ENDTAB
0
TABLE
2
VIEW
5
6
100
AcDbSymbolTable
70
0
0
ENDTAB
0
TABLE
2
UCS
5
7
100
AcDbSymbolTable
70
0
0
ENDTAB
0
TABLE
2
APPID
5
9
100
AcDbSymbolTable
70
2
0
APPID
5
12
100
AcDbSymbolTableRecord
100
AcDbRegAppTableRecord
2
ACAD
70
0
0
ENDTAB
0
TABLE
2
DIMSTYLE
5
A
100
AcDbSymbolTable
70
1
0
ENDTAB
0
TABLE
2
BLOCK_RECORD
5
1
100
AcDbSymbolTable
70
1
0
BLOCK_RECORD
5
1F
100
AcDbSymbolTableRecord
100
AcDbBlockTableRecord
2
*MODEL_SPACE
0
BLOCK_RECORD
5
1B
100
AcDbSymbolTableRecord
100
AcDbBlockTableRecord
2
*PAPER_SPACE
0
ENDTAB
0
ENDSEC
0
SECTION
2
BLOCKS
0
BLOCK
5
20
100
AcDbEntity
100
AcDbBlockBegin
2
*MODEL_SPACE
0
ENDBLK
5
21
100
AcDbEntity
100
AcDbBlockEnd
0
BLOCK
5
1C
100
AcDbEntity
100
AcDbBlockBegin
2
*PAPER_SPACE
0
ENDBLK
5
1D
100
AcDbEntity
100
AcDbBlockEnd
0
ENDSEC
0
SECTION
2
ENTITIES
0
CIRCLE
5
100
100
AcDbEntity
8
0
100
AcDbCircle
10
-40.105002295843128
20
-32.197848442286407
30
0
40
0.24999999999999467
210
0
220
-0
230
1
0
CIRCLE
5
101
100
AcDbEntity
8
0
100
AcDbCircle
10
-41.375002295843224
20
-37.06784844228644
30
0
40
1.3750000000000107
210
0
220
-0
230
1
0
CIRCLE
5
102
100
AcDbEntity
8
0
100
AcDbCircle
10
-41.375002295843224
20
20.932151557713681
30
0
40
1.3750000000000107
210
0
220
-0
230
1
0
CIRCLE
5
103
100
AcDbEntity
8
0
100
AcDbCircle
10
44.624997704157288
20
-37.06784844228644
30
0
40
1.3750000000000084
210
0
220
-0
230
1
0
CIRCLE
5
104
100
AcDbEntity
8
0
100
AcDbCircle
10
44.624997704157288
20
20.932151557713681
30
0
40
1.3750000000000084
210
0
220
-0
230
1
0
LWPOLYLINE
5
105
100
AcDbEntity
8
0
100
AcDbPolyline
90
28
70
1
43
0.0
10
45.624997704157302
20
25.932151557713702
42
-0.41421356237309503
10
48.624997704157309
20
22.932151557713702
10
48.624997704157309
20
-38.06784844228644
42
-0.41421356237309548
10
45.624997704157309
20
-41.067848442286433
10
34.974997704157275
20
-41.067848442286433
42
-0.41421356237309503
10
31.974997704157275
20
-38.067848442286433
10
31.974997704157275
20
-1.6678484422863573
42
0.41421356237309465
10
28.974997704157275
20
1.3321515577136411
10
-27.72500229584314
20
1.3321515577136411
42
0.41421356237309509
10
-30.72500229584314
20
-1.6678484422863571
10
-30.725002295842931
20
-38.06784844228644
42
-0.41421356237309503
10
-33.725002295842927
20
-41.067848442286433
10
-48.375002295843295
20
-41.067848442286433
42
-0.41421356237309503
10
-51.375002295843302
20
-38.067848442286433
10
-51.375002295843295
20
22.932151557713706
42
-0.41421356237309503
10
-48.375002295843295
20
25.932151557713702
10
-40.575002297508334
20
25.932151557713702
42
-0.41421356237309503
10
-37.575002297508334
20
22.932151557713706
10
-37.575002297508334
20
12.762151557713652
42
0.41421356237309503
10
-34.575002297508341
20
9.7621515577136506
10
-21.875012156906273
20
9.7621515577136506
42
0.41421356237309337
10
-18.875012156906273
20
12.762151557713647
10
-18.875012156906273
20
17.607151557713678
42
-0.4142135623730937
10
-15.875012156906273
20
20.607151557713678
10
32.524997704970644
20
20.607151557713674
42
0.41421356237309503
10
35.524997704970644
20
23.607151557713678
10
35.524997704970652
20
22.932151557713706
42
-0.41421356237309548
10
38.524997704970652
20
25.932151557713702
0
ENDSEC
0
SECTION
2
OBJECTS
0
DICTIONARY
5
C
100
AcDbDictionary
3
ACAD_GROUP
350
D
3
ACAD_MLINESTYLE
350
17
0
DICTIONARY
5
D
100
AcDbDictionary
0
DICTIONARY
5
1A
330
C
100
AcDbDictionary
0
DICTIONARY
5
17
100
AcDbDictionary
0
ENDSEC
0
EOF
